<?xml version="1.0" encoding="UTF-8"?>
<svg id="_Слой_2" data-name="Слой 2" xmlns="http://www.w3.org/2000/svg" viewBox="0 0 44.99 35.87">
  <defs>
    <style>
      .cls-1 {
        fill: #fff;
      }
    </style>
  </defs>
  <g id="_1" data-name=" 1">
    <g>
      <path class="cls-1" d="M.81,18.36c-.11,0-.22-.02-.33-.07-.29-.13-.48-.42-.48-.74V8.18c0-.22,.09-.43,.25-.58L7.9,.23c.23-.23,.58-.29,.88-.16,.3,.13,.49,.42,.49,.74V10.74c0,.23-.1,.45-.27,.6L1.35,18.15c-.15,.13-.34,.2-.54,.2Zm.81-9.84v7.23l6.03-5.37V2.71L1.62,8.52Z"/>
      <path class="cls-1" d="M36.54,35.87H8.46c-.45,0-.81-.36-.81-.81V.81C7.65,.36,8.01,0,8.46,0h8c.45,0,.81,.36,.81,.81,0,2.88,2.35,5.23,5.23,5.23s5.23-2.35,5.23-5.23C27.72,.36,28.09,0,28.53,0h8c.45,0,.81,.36,.81,.81V35.06c0,.45-.36,.81-.81,.81Zm-27.27-1.62h26.46V1.62h-6.43c-.4,3.39-3.3,6.04-6.8,6.04s-6.4-2.64-6.8-6.04h-6.43V34.25Z"/>
      <path class="cls-1" d="M12.85,33.1h-1.62c-.45,0-.81-.36-.81-.81v-1.62c0-.45,.36-.81,.81-.81s.81,.36,.81,.81v.81h.81c.45,0,.81,.36,.81,.81s-.36,.81-.81,.81Z"/>
      <path class="cls-1" d="M29.39,33.1h-2.76c-.45,0-.81-.36-.81-.81s.36-.81,.81-.81h2.76c.45,0,.81,.36,.81,.81s-.36,.81-.81,.81Zm-5.52,0h-2.76c-.45,0-.81-.36-.81-.81s.36-.81,.81-.81h2.76c.45,0,.81,.36,.81,.81s-.36,.81-.81,.81Zm-5.51,0h-2.76c-.45,0-.81-.36-.81-.81s.36-.81,.81-.81h2.76c.45,0,.81,.36,.81,.81s-.36,.81-.81,.81Z"/>
      <path class="cls-1" d="M33.76,33.1h-1.62c-.45,0-.81-.36-.81-.81s.36-.81,.81-.81h.81v-.81c0-.45,.36-.81,.81-.81s.81,.36,.81,.81v1.62c0,.45-.36,.81-.81,.81Z"/>
      <path class="cls-1" d="M33.76,27.84c-.45,0-.81-.36-.81-.81v-3.64c0-.45,.36-.81,.81-.81s.81,.36,.81,.81v3.64c0,.45-.36,.81-.81,.81Zm0-7.28c-.45,0-.81-.36-.81-.81v-3.64c0-.45,.36-.81,.81-.81s.81,.36,.81,.81v3.64c0,.45-.36,.81-.81,.81Zm0-7.28c-.45,0-.81-.36-.81-.81v-3.64c0-.45,.36-.81,.81-.81s.81,.36,.81,.81v3.64c0,.45-.36,.81-.81,.81Z"/>
      <path class="cls-1" d="M33.76,6c-.45,0-.81-.36-.81-.81v-.81h-1.53c-.15,.36-.31,.72-.5,1.06-.22,.39-.71,.53-1.1,.32-.39-.22-.53-.71-.32-1.1,.24-.43,.43-.88,.59-1.34,.11-.33,.42-.55,.77-.55h2.91c.45,0,.81,.36,.81,.81v1.62c0,.45-.36,.81-.81,.81Z"/>
      <path class="cls-1" d="M20.65,10.23c-.06,0-.11,0-.17-.02-1.35-.29-2.59-.85-3.71-1.68-.36-.27-.43-.77-.17-1.13,.27-.36,.77-.43,1.13-.17,.92,.69,1.96,1.16,3.08,1.4,.44,.09,.71,.52,.62,.96-.08,.38-.42,.64-.79,.64Zm3.72,0c-.37,0-.71-.26-.79-.64-.1-.44,.18-.87,.62-.96,1.12-.24,2.15-.72,3.08-1.41,.36-.27,.86-.19,1.13,.16,.27,.36,.19,.86-.16,1.13-1.11,.83-2.35,1.4-3.7,1.69-.06,.01-.12,.02-.17,.02Z"/>
      <path class="cls-1" d="M11.23,6c-.45,0-.81-.36-.81-.81v-1.62c0-.45,.36-.81,.81-.81h2.91c.35,0,.66,.22,.77,.55,.15,.46,.35,.91,.59,1.34,.22,.39,.07,.88-.32,1.1-.39,.22-.88,.07-1.1-.32-.19-.34-.36-.7-.5-1.06h-1.53v.81c0,.45-.36,.81-.81,.81Z"/>
      <path class="cls-1" d="M11.23,27.84c-.45,0-.81-.36-.81-.81v-3.64c0-.45,.36-.81,.81-.81s.81,.36,.81,.81v3.64c0,.45-.36,.81-.81,.81Zm0-7.28c-.45,0-.81-.36-.81-.81v-3.64c0-.45,.36-.81,.81-.81s.81,.36,.81,.81v3.64c0,.45-.36,.81-.81,.81Zm0-7.28c-.45,0-.81-.36-.81-.81v-3.64c0-.45,.36-.81,.81-.81s.81,.36,.81,.81v3.64c0,.45-.36,.81-.81,.81Z"/>
      <path class="cls-1" d="M44.19,18.36c-.19,0-.39-.07-.54-.2l-7.65-6.81c-.17-.15-.27-.37-.27-.6V.81c0-.32,.19-.62,.49-.74,.3-.13,.64-.06,.88,.16l7.65,7.37c.16,.15,.25,.36,.25,.58v9.37c0,.32-.19,.61-.48,.74-.11,.05-.22,.07-.33,.07Zm-6.84-7.98l6.03,5.37v-7.23l-6.03-5.81v7.67Z"/>
      <path class="cls-1" d="M3.19,16.24c-.45,0-.81-.36-.81-.81V5.89c0-.45,.36-.81,.81-.81s.81,.36,.81,.81V15.43c0,.45-.36,.81-.81,.81Z"/>
      <path class="cls-1" d="M41.81,16.24c-.45,0-.81-.36-.81-.81V5.89c0-.45,.36-.81,.81-.81s.81,.36,.81,.81V15.43c0,.45-.36,.81-.81,.81Z"/>
    </g>
  </g>
</svg>
