<?xml version="1.0" encoding="UTF-8"?>
<svg id="_Слой_2" data-name="Слой 2" xmlns="http://www.w3.org/2000/svg" viewBox="0 0 42.89 42.47">
  <defs>
    <style>
      .cls-1 {
        fill: #fff;
      }
    </style>
  </defs>
  <g id="_1" data-name=" 1">
    <g>
      <path class="cls-1" d="M36.1,42.47H2.43c-1.34,0-2.43-1.09-2.43-2.43v-6.7c0-1.34,1.09-2.43,2.43-2.43H37.71c.45,0,.81,.36,.81,.81v8.32c0,1.34-1.09,2.43-2.43,2.43ZM2.43,32.53c-.45,0-.81,.36-.81,.81v6.7c0,.45,.36,.81,.81,.81H36.1c.45,0,.81-.36,.81-.81v-7.51H2.43Z"/>
      <path class="cls-1" d="M37.71,32.53h-13.77c-.45,0-.81-.36-.81-.81v-14.84c0-.45-.36-.81-.81-.81H10.03c-.95,0-1.72,.77-1.72,1.72v2.1c0,.45-.36,.81-.81,.81H.81c-.45,0-.81-.36-.81-.81V11.76c0-3.79,3.08-6.87,6.87-6.87H31.65c3.79,0,6.87,3.08,6.87,6.87V31.72c0,.45-.36,.81-.81,.81Zm-12.97-1.62h12.16V11.76c0-2.9-2.36-5.26-5.26-5.26H6.87c-2.9,0-5.26,2.36-5.26,5.26v7.32H6.7v-1.29c0-1.84,1.49-3.33,3.33-3.33h12.29c1.34,0,2.42,1.09,2.42,2.43v14.03Z"/>
      <path class="cls-1" d="M4.37,25.12c-1.5,0-2.71-1.22-2.71-2.71v-2.51c0-.45,.36-.81,.81-.81h3.81c.45,0,.81,.36,.81,.81v2.51c0,1.5-1.22,2.71-2.71,2.71Zm-1.1-4.42v1.7c0,.6,.49,1.1,1.1,1.1s1.1-.49,1.1-1.1v-1.7H3.27Z"/>
      <rect class="cls-1" x="3.56" y="24.31" width="1.62" height="7.41"/>
      <path class="cls-1" d="M27.41,6.51c-.45,0-.81-.36-.81-.81V.81c0-.45,.36-.81,.81-.81s.81,.36,.81,.81V5.7c0,.45-.36,.81-.81,.81Z"/>
      <path class="cls-1" d="M41.27,24.43h-3.56c-.45,0-.81-.36-.81-.81V13.48c0-.45,.36-.81,.81-.81h3.56c.89,0,1.62,.73,1.62,1.62v8.53c0,.89-.72,1.62-1.62,1.62Zm-2.75-1.62h2.75V14.29h-2.75v8.53Z"/>
      <path class="cls-1" d="M30.96,28.82c-2.14,0-3.88-1.74-3.88-3.88s1.74-3.88,3.88-3.88,3.88,1.74,3.88,3.88-1.74,3.88-3.88,3.88Zm0-6.15c-1.25,0-2.27,1.02-2.27,2.27s1.02,2.27,2.27,2.27,2.27-1.02,2.27-2.27-1.02-2.27-2.27-2.27Z"/>
      <path class="cls-1" d="M30.96,19.36c-2.14,0-3.88-1.74-3.88-3.88s1.74-3.88,3.88-3.88,3.88,1.74,3.88,3.88-1.74,3.88-3.88,3.88Zm0-6.15c-1.25,0-2.27,1.02-2.27,2.27s1.02,2.27,2.27,2.27,2.27-1.02,2.27-2.27-1.02-2.27-2.27-2.27Z"/>
      <path class="cls-1" d="M5.53,14.29c-.45,0-.81-.36-.81-.81v-2.5c0-.45,.36-.81,.81-.81s.81,.36,.81,.81v2.5c0,.45-.36,.81-.81,.81Z"/>
      <path class="cls-1" d="M13.57,12.57c-.45,0-.81-.36-.81-.81v-2.5c0-.45,.36-.81,.81-.81s.81,.36,.81,.81v2.5c0,.45-.36,.81-.81,.81Z"/>
      <path class="cls-1" d="M18.35,37.5h-2.02c-.45,0-.81-.36-.81-.81s.36-.81,.81-.81h2.02c.45,0,.81,.36,.81,.81s-.36,.81-.81,.81Z"/>
      <path class="cls-1" d="M26.01,37.5h-3.83c-.45,0-.81-.36-.81-.81s.36-.81,.81-.81h3.83c.45,0,.81,.36,.81,.81s-.36,.81-.81,.81Z"/>
      <path class="cls-1" d="M31.86,37.5h-2.02c-.45,0-.81-.36-.81-.81s.36-.81,.81-.81h2.02c.45,0,.81,.36,.81,.81s-.36,.81-.81,.81Z"/>
      <path class="cls-1" d="M16.33,37.5H.81c-.45,0-.81-.36-.81-.81s.36-.81,.81-.81h15.52c.45,0,.81,.36,.81,.81s-.36,.81-.81,.81Z"/>
    </g>
  </g>
</svg>
