<?xml version="1.0" encoding="UTF-8"?>
<svg id="_Слой_2" data-name="Слой 2" xmlns="http://www.w3.org/2000/svg" viewBox="0 0 44.12 42.98">
  <defs>
    <style>
      .cls-1 {
        fill: #fff;
      }
    </style>
  </defs>
  <g id="_1" data-name=" 1">
    <g>
      <path class="cls-1" d="M31.36,42.98c-.21,0-.42-.09-.57-.24l-1.79-1.79-1.76,1.76c-.32,.32-.83,.32-1.14,0l-1.74-1.74-1.75,1.75c-.32,.32-.83,.32-1.14,0l-1.77-1.77-1.72,1.72c-.32,.32-.83,.32-1.14,0l-1.72-1.72-1.77,1.77c-.32,.32-.83,.32-1.14,0l-1.75-1.75-1.74,1.74c-.32,.32-.83,.32-1.14,0l-1.76-1.76-1.79,1.79c-.3,.3-.84,.3-1.14,0L.24,40.1c-.32-.32-.32-.83,0-1.14l1.79-1.79-1.76-1.76c-.32-.32-.32-.83,0-1.14l1.74-1.74-1.75-1.75c-.15-.15-.24-.36-.24-.57s.09-.42,.24-.57l1.77-1.77-1.72-1.72c-.32-.32-.32-.83,0-1.14l1.72-1.72-1.77-1.77c-.32-.32-.32-.83,0-1.14l1.75-1.75-1.74-1.74c-.15-.15-.24-.36-.24-.57s.09-.42,.24-.57l1.76-1.76L.24,12.19c-.32-.32-.32-.83,0-1.14l2.63-2.63c.15-.15,.36-.24,.57-.24s.42,.09,.57,.24l1.79,1.79,1.76-1.76c.32-.32,.83-.32,1.14,0l1.74,1.74,1.75-1.75c.32-.32,.83-.32,1.14,0l1.77,1.77,1.72-1.72c.32-.32,.83-.32,1.14,0l1.72,1.72,1.77-1.77c.32-.32,.83-.32,1.14,0l1.75,1.75,1.74-1.74c.32-.32,.83-.32,1.14,0l1.76,1.76,1.79-1.79c.3-.3,.84-.3,1.14,0l2.63,2.63c.32,.32,.32,.83,0,1.14l-1.79,1.79,1.76,1.76c.15,.15,.24,.36,.24,.57s-.09,.42-.24,.57l-1.74,1.74,1.75,1.75c.32,.32,.32,.83,0,1.14l-1.77,1.77,1.72,1.72c.32,.32,.32,.83,0,1.14l-1.72,1.72,1.77,1.77c.15,.15,.24,.36,.24,.57s-.09,.42-.24,.57l-1.75,1.75,1.74,1.74c.32,.32,.32,.83,0,1.14l-1.76,1.76,1.79,1.79c.32,.32,.32,.83,0,1.14l-2.63,2.63c-.15,.15-.36,.24-.57,.24Zm-2.36-3.98c.21,0,.42,.09,.57,.24l1.79,1.79,1.49-1.49-1.79-1.79c-.32-.32-.32-.83,0-1.14l1.76-1.76-1.74-1.74c-.32-.32-.32-.83,0-1.14l1.75-1.75-1.77-1.77c-.32-.32-.32-.83,0-1.14l1.72-1.72-1.72-1.72c-.32-.32-.32-.83,0-1.14l1.77-1.77-1.75-1.75c-.15-.15-.24-.36-.24-.57s.09-.42,.24-.57l1.74-1.74-1.76-1.76c-.32-.32-.32-.83,0-1.14l1.79-1.79-1.49-1.49-1.79,1.79c-.3,.3-.84,.3-1.14,0l-1.76-1.76-1.74,1.74c-.32,.32-.83,.32-1.14,0l-1.75-1.75-1.77,1.77c-.32,.32-.83,.32-1.14,0l-1.72-1.72-1.72,1.72c-.32,.32-.83,.32-1.14,0l-1.77-1.77-1.75,1.75c-.32,.32-.83,.32-1.14,0l-1.74-1.74-1.76,1.76c-.32,.32-.83,.32-1.14,0l-1.79-1.79-1.49,1.49,1.79,1.79c.32,.32,.32,.83,0,1.14l-1.76,1.76,1.74,1.74c.15,.15,.24,.36,.24,.57s-.09,.42-.24,.57l-1.75,1.75,1.77,1.77c.32,.32,.32,.83,0,1.14l-1.72,1.72,1.72,1.72c.32,.32,.32,.83,0,1.14l-1.77,1.77,1.75,1.75c.32,.32,.32,.83,0,1.14l-1.74,1.74,1.76,1.76c.32,.32,.32,.83,0,1.14l-1.79,1.79,1.49,1.49,1.79-1.79c.32-.32,.83-.32,1.14,0l1.76,1.76,1.74-1.74c.32-.32,.83-.32,1.14,0l1.75,1.75,1.77-1.77c.32-.32,.83-.32,1.14,0l1.72,1.72,1.72-1.72c.32-.32,.83-.32,1.14,0l1.77,1.77,1.75-1.75c.32-.32,.83-.32,1.14,0l1.74,1.74,1.76-1.76c.15-.15,.36-.24,.57-.24Z"/>
      <path class="cls-1" d="M40.68,34.8c-.21,0-.42-.09-.57-.24l-1.79-1.79-1.76,1.76c-.32,.32-.83,.32-1.14,0l-1.74-1.74-.89,.89c-.32,.32-.83,.32-1.14,0l-.57-.57c-.15-.15-.24-.36-.24-.57s.09-.42,.24-.57l1.75-1.75-1.77-1.77c-.32-.32-.32-.83,0-1.14l1.72-1.72-1.72-1.72c-.32-.32-.32-.83,0-1.14l1.77-1.77-1.75-1.75c-.15-.15-.24-.36-.24-.57s.09-.42,.24-.57l1.74-1.74-1.76-1.76c-.32-.32-.32-.83,0-1.14l1.79-1.79-1.49-1.49-1.79,1.79c-.32,.32-.83,.32-1.14,0l-1.76-1.76-1.74,1.74c-.32,.32-.83,.32-1.14,0l-1.75-1.75-1.77,1.77c-.32,.32-.83,.32-1.14,0l-1.72-1.72-1.72,1.72c-.32,.32-.83,.32-1.14,0l-1.77-1.77-.3,.3c-.32,.32-.83,.32-1.14,0l-1.74-1.74c-.15-.15-.24-.36-.24-.57s.09-.42,.24-.57l1.76-1.76-1.79-1.79c-.32-.32-.32-.83,0-1.14L12.19,.24c.15-.15,.36-.24,.57-.24s.42,.09,.57,.24l1.79,1.79,1.76-1.76c.32-.32,.83-.32,1.14,0l1.74,1.74,1.75-1.75c.32-.32,.83-.32,1.14,0l1.77,1.77,1.72-1.72c.32-.32,.83-.32,1.14,0l1.72,1.72,1.77-1.77c.32-.32,.83-.32,1.14,0l1.75,1.75,1.74-1.74c.32-.32,.83-.32,1.14,0l1.76,1.76,1.79-1.79c.3-.3,.84-.3,1.14,0l2.63,2.63c.32,.32,.32,.83,0,1.14l-1.79,1.79,1.76,1.76c.15,.15,.24,.36,.24,.57s-.09,.42-.24,.57l-1.74,1.74,1.75,1.75c.32,.32,.32,.83,0,1.14l-1.77,1.77,1.72,1.72c.32,.32,.32,.83,0,1.14l-1.72,1.72,1.77,1.77c.15,.15,.24,.36,.24,.57s-.09,.42-.24,.57l-1.75,1.75,1.74,1.74c.32,.32,.32,.83,0,1.14l-1.76,1.76,1.79,1.79c.32,.32,.32,.83,0,1.14l-2.63,2.63c-.15,.15-.36,.24-.57,.24Zm-2.36-3.98c.21,0,.42,.09,.57,.24l1.79,1.79,1.49-1.49-1.79-1.79c-.32-.32-.32-.83,0-1.14l1.76-1.76-1.74-1.74c-.32-.32-.32-.83,0-1.14l1.75-1.75-1.77-1.77c-.32-.32-.32-.83,0-1.14l1.72-1.72-1.72-1.72c-.32-.32-.32-.83,0-1.14l1.77-1.77-1.75-1.75c-.15-.15-.24-.36-.24-.57s.09-.42,.24-.57l1.74-1.74-1.76-1.76c-.32-.32-.32-.83,0-1.14l1.79-1.79-1.49-1.49-1.79,1.79c-.3,.3-.84,.3-1.14,0l-1.76-1.76-1.74,1.74c-.32,.32-.83,.32-1.14,0l-1.75-1.75-1.77,1.77c-.32,.32-.83,.32-1.14,0l-1.72-1.72-1.72,1.72c-.32,.32-.83,.32-1.14,0l-1.77-1.77-1.75,1.75c-.32,.32-.83,.32-1.14,0l-1.74-1.74-1.76,1.76c-.32,.32-.83,.32-1.14,0l-1.79-1.79-1.49,1.49,1.79,1.79c.15,.15,.24,.36,.24,.57s-.09,.42-.24,.57l-1.76,1.76,.6,.6,.3-.3c.32-.32,.83-.32,1.14,0l1.77,1.77,1.72-1.72c.32-.32,.83-.32,1.14,0l1.72,1.72,1.77-1.77c.32-.32,.83-.32,1.14,0l1.75,1.75,1.74-1.74c.32-.32,.83-.32,1.14,0l1.76,1.76,1.79-1.79c.3-.3,.84-.3,1.14,0l2.63,2.63c.32,.32,.32,.83,0,1.14l-1.79,1.79,1.76,1.76c.15,.15,.24,.36,.24,.57s-.09,.42-.24,.57l-1.74,1.74,1.75,1.75c.32,.32,.32,.83,0,1.14l-1.77,1.77,1.72,1.72c.32,.32,.32,.83,0,1.14l-1.72,1.72,1.77,1.77c.15,.15,.24,.36,.24,.57s-.09,.42-.24,.57l-.3,.3s1.74,1.74,1.74,1.74l1.76-1.76c.15-.15,.36-.24,.57-.24Z"/>
      <path class="cls-1" d="M31.63,14.79c-.21,0-.41-.08-.57-.24l-2.63-2.63c-.32-.32-.32-.83,0-1.14s.83-.32,1.14,0l2.63,2.63c.32,.32,.32,.83,0,1.14-.16,.16-.36,.24-.57,.24Z"/>
      <path class="cls-1" d="M20.84,13.29c-.21,0-.41-.08-.57-.24l-1.14-1.14c-.32-.32-.32-.83,0-1.14,.32-.32,.83-.32,1.14,0l1.14,1.14c.32,.32,.32,.83,0,1.14-.16,.16-.36,.24-.57,.24Z"/>
      <path class="cls-1" d="M28.56,21.02c-.21,0-.41-.08-.57-.24l-1.93-1.93c-.32-.32-.32-.83,0-1.14,.32-.32,.83-.32,1.14,0l1.93,1.93c.32,.32,.32,.83,0,1.14-.16,.16-.36,.24-.57,.24Zm-3.86-3.86c-.21,0-.41-.08-.57-.24l-1.93-1.93c-.32-.32-.32-.83,0-1.14,.32-.32,.83-.32,1.14,0l1.93,1.93c.32,.32,.32,.83,0,1.14-.16,.16-.36,.24-.57,.24Z"/>
      <path class="cls-1" d="M31.63,24.09c-.21,0-.41-.08-.57-.24l-1.14-1.14c-.32-.32-.32-.83,0-1.14,.31-.32,.83-.32,1.14,0l1.14,1.14c.32,.32,.32,.83,0,1.14-.16,.16-.36,.24-.57,.24Z"/>
      <path class="cls-1" d="M31.65,33.34c-.21,0-.41-.08-.57-.24L9.87,11.9c-.32-.32-.32-.83,0-1.14,.32-.32,.83-.32,1.14,0l21.21,21.21c.32,.32,.32,.83,0,1.14-.16,.16-.36,.24-.57,.24Z"/>
      <path class="cls-1" d="M29,40.62c-.21,0-.41-.08-.57-.24L2.6,14.55c-.32-.32-.32-.83,0-1.14,.32-.32,.83-.32,1.14,0l25.83,25.83c.32,.32,.32,.83,0,1.14-.16,.16-.36,.24-.57,.24Z"/>
      <path class="cls-1" d="M19.69,40.62c-.21,0-.41-.08-.57-.24L2.59,23.85c-.32-.32-.32-.83,0-1.14s.83-.32,1.14,0l16.53,16.53c.32,.32,.32,.83,0,1.14-.16,.16-.36,.24-.57,.24Z"/>
      <path class="cls-1" d="M10.44,40.63c-.21,0-.41-.08-.57-.24l-7.29-7.29c-.32-.32-.32-.83,0-1.14s.83-.32,1.14,0l7.29,7.29c.32,.32,.32,.83,0,1.14-.16,.16-.36,.24-.57,.24Z"/>
    </g>
  </g>
</svg>
