<?xml version="1.0" encoding="UTF-8"?>
<svg id="_Слой_2" data-name="Слой 2" xmlns="http://www.w3.org/2000/svg" viewBox="0 0 39.29 39.29">
  <defs>
    <style>
      .cls-1 {
        fill: #fff;
      }
    </style>
  </defs>
  <g id="_Слой_1-2" data-name="Слой 1">
    <path class="cls-1" d="M19.64,39.29c-.89,0-1.77-.34-2.44-1.01-.62-.63-1.56-.81-2.37-.47-1.76,.74-3.79-.1-4.52-1.86l-.03-.07c-.34-.81-1.12-1.33-2-1.33h-.08c-1.91,0-3.46-1.55-3.46-3.46,0-.88-.53-1.67-1.35-2.01-1.76-.72-2.61-2.75-1.89-4.51l.03-.07c.33-.81,.15-1.74-.47-2.36l-.06-.06c-1.35-1.35-1.35-3.54,0-4.89,.62-.62,.81-1.56,.47-2.37-.74-1.76,.1-3.79,1.86-4.52l.07-.03c.81-.34,1.33-1.12,1.33-2v-.08c0-1.91,1.55-3.46,3.46-3.46,.88,0,1.67-.53,2.01-1.35,.72-1.76,2.75-2.61,4.51-1.89l.07,.03c.81,.33,1.74,.15,2.36-.47l.05-.06c.65-.65,1.52-1.01,2.45-1.01s1.79,.36,2.44,1.01c.62,.62,1.56,.81,2.37,.47,.85-.36,1.79-.36,2.65,0,.85,.35,1.52,1.01,1.88,1.87l.03,.07c.34,.81,1.12,1.33,2,1.33h.08c1.91,0,3.46,1.55,3.46,3.46,0,.88,.53,1.67,1.35,2.01,1.76,.72,2.61,2.75,1.89,4.51l-.03,.07c-.33,.81-.15,1.74,.47,2.36l.06,.06c1.35,1.35,1.35,3.54,0,4.89h0c-.62,.62-.81,1.56-.47,2.37,.36,.85,.36,1.79,0,2.65-.35,.85-1.01,1.52-1.87,1.88l-.07,.03c-.81,.34-1.33,1.12-1.33,2v.08c0,1.91-1.55,3.46-3.46,3.46-.88,0-1.67,.53-2.01,1.35-.35,.85-1.01,1.52-1.86,1.88-.85,.36-1.79,.36-2.65,0l-.07-.03c-.81-.33-1.74-.15-2.36,.47l-.05,.05c-.67,.67-1.56,1.01-2.45,1.01Zm-3.97-2.94c.9,0,1.78,.35,2.44,1.01,.85,.84,2.22,.84,3.07,0l.05-.06c.99-.99,2.46-1.29,3.76-.75l.07,.03c.54,.22,1.13,.22,1.66,0,.53-.22,.95-.64,1.17-1.18,.53-1.3,1.79-2.14,3.2-2.14,1.2,0,2.17-.97,2.17-2.17v-.08c0-1.4,.83-2.65,2.12-3.19l.07-.03c.54-.22,.95-.64,1.17-1.18,.22-.54,.22-1.13,0-1.66-.54-1.3-.25-2.78,.75-3.78h0c.85-.85,.85-2.22,0-3.07l-.06-.06c-.99-.99-1.28-2.46-.75-3.76l.03-.07c.45-1.11-.08-2.38-1.18-2.83-1.3-.53-2.14-1.79-2.14-3.2,0-1.2-.97-2.17-2.17-2.17h-.08c-1.4,0-2.65-.83-3.19-2.12l-.03-.07c-.22-.53-.64-.95-1.18-1.17-.54-.22-1.13-.22-1.66,0-1.3,.54-2.78,.25-3.78-.75-.41-.41-.95-.64-1.53-.64s-1.12,.23-1.53,.64l-.05,.06c-.99,.99-2.46,1.29-3.76,.75l-.07-.03c-1.11-.45-2.38,.08-2.83,1.18-.53,1.3-1.79,2.14-3.2,2.14-1.2,0-2.17,.97-2.17,2.17v.08c0,1.4-.83,2.65-2.12,3.19l-.07,.03c-1.1,.46-1.62,1.73-1.16,2.84,.54,1.3,.25,2.78-.75,3.78-.85,.85-.85,2.22,0,3.07l.06,.06c.99,.99,1.28,2.46,.75,3.76l-.03,.07c-.45,1.11,.08,2.38,1.18,2.83,1.3,.53,2.14,1.79,2.14,3.2,0,1.2,.97,2.17,2.17,2.17h.08c1.4,0,2.65,.83,3.19,2.12l.03,.07c.46,1.1,1.73,1.63,2.84,1.16,.43-.18,.89-.27,1.34-.27Zm22.15-14.72h0Z"/>
  </g>
</svg>