<?xml version="1.0" encoding="UTF-8"?>
<svg id="_Слой_2" data-name="Слой 2" xmlns="http://www.w3.org/2000/svg" viewBox="0 0 142.35 162.15">
  <defs>
    <style>
      .cls-1 {
        fill: #fff;
      }
    </style>
  </defs>
  <g id="Dirtybarn.com">
    <g id="_327" data-name="327">
      <path class="cls-1" d="M71.17,0c0,66.57-12.73,80.79-71.17,79.47,58.45,1.32,71.17,16.1,71.17,82.68,0-66.58,12.73-81.36,71.17-82.68-58.45,1.32-71.17-12.89-71.17-79.47Z"/>
      <path class="cls-1" d="M106.4,48.08c0-14.67,6.33-22.02,19.2-22.31-12.87,.29-19.2-6.77-19.2-21.44,0,14.67-6.33,21.73-19.2,21.44,12.87,.29,19.2,7.64,19.2,22.31Z"/>
      <path class="cls-1" d="M34.67,100.51c0,10.17-4.39,15.06-13.31,14.86,8.92,.2,13.31,5.3,13.31,15.46,0-10.17,4.39-15.26,13.31-15.46-8.92,.2-13.31-4.7-13.31-14.86Z"/>
    </g>
  </g>
</svg>